<?xml version="1.0" standalone="no"?>
<!DOCTYPE svg PUBLIC "-//W3C//DTD SVG 20010904//EN"
 "http://www.w3.org/TR/2001/REC-SVG-20010904/DTD/svg10.dtd">
<svg version="1.0" xmlns="http://www.w3.org/2000/svg"
 width="260.000000pt" height="260.000000pt" viewBox="0 0 260.000000 260.000000"
 preserveAspectRatio="xMidYMid meet">
<metadata>
Created by potrace 1.11, written by Peter Selinger 2001-2013
</metadata>
<g transform="translate(0.000000,260.000000) scale(0.100000,-0.100000)"
fill="#000000" stroke="none">
<path d="M970 2591 c-75 -23 -138 -81 -160 -146 -20 -59 -9 -156 23 -203 l26
-40 -85 -126 c-79 -118 -87 -126 -117 -126 -112 0 -147 -177 -44 -223 15 -6
30 -21 32 -32 11 -46 85 -469 85 -483 0 -9 -10 -26 -22 -40 -17 -17 -23 -36
-24 -71 0 -46 -3 -49 -81 -122 -73 -69 -83 -75 -115 -71 -73 8 -138 -48 -138
-121 0 -46 37 -99 80 -113 32 -11 38 -19 73 -110 38 -98 38 -99 22 -144 -19
-57 -19 -74 1 -116 31 -66 126 -86 182 -39 l29 25 144 -30 c79 -17 144 -30
146 -30 2 0 3 -11 3 -24 0 -66 60 -148 135 -182 87 -41 176 -27 249 38 122
107 98 306 -46 379 l-40 20 6 62 c17 166 11 151 72 176 33 14 67 38 87 62 l34
39 94 -29 c52 -16 140 -43 196 -61 89 -27 104 -34 109 -55 3 -14 19 -36 35
-50 68 -56 156 -36 191 43 19 42 19 46 3 87 -29 76 -95 101 -170 65 l-46 -22
-194 58 -193 59 -4 43 c-2 24 1 47 7 51 5 5 72 43 147 85 l138 77 32 -25 c47
-35 85 -48 150 -47 167 0 275 174 204 326 -57 123 -192 170 -314 109 -88 -44
-138 -134 -128 -229 l5 -50 -146 -81 -146 -82 -40 29 c-22 16 -47 29 -55 29
-13 0 -14 16 -9 107 5 101 7 108 31 126 63 46 74 126 25 181 -49 56 -125 61
-175 10 -24 -23 -29 -24 -105 -18 -74 6 -82 9 -102 36 -28 38 -66 58 -111 58
-30 0 -43 9 -99 71 -64 70 -65 72 -70 137 l-5 67 80 121 81 122 35 -10 c77
-21 176 13 231 79 37 44 51 89 51 157 0 146 -152 259 -290 217z m-250 -676
c33 -17 54 -70 44 -109 -14 -57 -101 -86 -151 -51 -28 20 -46 75 -34 106 22
59 84 83 141 54z m121 -387 c-1 -24 5 -59 15 -80 16 -36 16 -39 -9 -100 l-25
-62 -10 54 c-6 30 -21 109 -32 175 -12 66 -24 127 -26 135 -3 8 16 -6 43 -32
43 -43 47 -51 44 -90z m192 41 c39 -42 36 -82 -8 -126 -32 -32 -40 -35 -73
-30 -48 8 -82 46 -82 93 0 47 15 73 53 89 42 18 76 10 110 -26z m386 -26 c47
-39 42 -120 -10 -157 -95 -66 -202 83 -112 154 32 25 93 26 122 3z m-223 -112
c6 -3 -11 -20 -37 -38 l-49 -33 -24 38 c-13 20 -22 40 -20 44 5 7 113 -1 130
-11z m-176 -123 c0 -8 -102 -79 -107 -75 -2 3 5 24 47 132 l11 30 25 -40 c13
-22 24 -43 24 -47z m274 -45 c-7 -118 -8 -123 -33 -123 -14 0 -32 20 -60 67
-22 37 -39 68 -38 69 22 18 123 84 129 84 5 0 6 -44 2 -97z m-173 -115 l38
-63 -22 -23 -23 -22 -92 32 c-50 18 -90 38 -89 43 4 12 140 105 146 99 2 -2
21 -32 42 -66z m-247 11 c43 -51 32 -115 -24 -144 -44 -23 -78 -19 -111 14
-62 63 -21 161 67 161 35 0 47 -5 68 -31z m123 -183 c46 -15 85 -31 88 -36 3
-5 -9 -11 -27 -14 -18 -3 -58 -10 -88 -15 -30 -5 -58 -6 -61 -3 -10 11 -27 91
-21 97 3 3 11 4 16 2 6 -2 48 -16 93 -31z m-287 -67 c-11 -38 -8 -35 -50 -44
l-35 -7 40 41 c47 49 57 51 45 10z m-175 -53 c35 -35 42 -72 21 -111 -32 -58
-95 -71 -144 -30 -35 30 -45 69 -27 111 16 40 39 53 88 54 27 0 45 -7 62 -24z
m572 -42 c2 -6 -23 -32 -56 -57 -64 -50 -86 -53 -102 -10 -20 53 -14 60 59 71
79 11 94 11 99 -4z m-259 -70 c11 -41 10 -48 -8 -71 -12 -16 -20 -41 -20 -64
0 -33 -6 -43 -45 -75 -25 -20 -48 -34 -51 -31 -10 9 56 275 69 281 32 13 43 4
55 -40z m1257 22 c32 -32 40 -69 25 -107 -26 -63 -95 -78 -149 -33 -26 21 -31
33 -31 69 0 36 5 48 31 69 40 34 91 35 124 2z m-1455 -111 c-13 -58 -26 -105
-30 -105 -4 0 -20 34 -35 75 l-27 74 21 30 c15 20 32 31 54 33 17 2 34 2 36 1
2 -2 -6 -50 -19 -108z m594 -48 c-9 -129 -13 -138 -63 -155 -41 -14 -108 -69
-128 -105 -9 -18 -16 -17 -151 9 -78 16 -142 31 -142 35 0 4 26 26 58 50 51
39 62 44 103 41 83 -6 139 43 139 121 0 29 8 40 56 79 l55 45 39 -19 39 -20
-5 -81z m-264 78 c36 -19 50 -43 50 -89 0 -53 -37 -91 -90 -91 -35 0 -47 6
-71 33 -35 39 -37 79 -8 116 36 45 73 55 119 31z m-277 -266 c34 -37 35 -78 2
-117 -32 -39 -74 -48 -114 -28 -36 19 -51 44 -51 86 0 43 16 69 53 86 42 18
76 10 110 -27z"/>
</g>
</svg>
